Coordinates
version=1
nRows=17
nColumns=36
inDegrees=yes

Units are S.I. units (second, meters, Newtons, ...)
If the header above contains a line with 'inDegrees', this indicates whether rotational values are in degrees (yes) or radians (no).

endheader
time	pelvis_tilt	pelvis_list	pelvis_rotation	pelvis_tx	pelvis_ty	pelvis_tz	hip_flexion_r	hip_adduction_r	hip_rotation_r	knee_angle_r	knee_angle_r_beta	ankle_angle_r	subtalar_angle_r	mtp_angle_r	hip_flexion_l	hip_adduction_l	hip_rotation_l	knee_angle_l	knee_angle_l_beta	ankle_angle_l	subtalar_angle_l	mtp_angle_l	lumbar_extension	lumbar_bending	lumbar_rotation	arm_flex_r	arm_add_r	arm_rot_r	elbow_flex_r	pro_sup_r	arm_flex_l	arm_add_l	arm_rot_l	elbow_flex_l	pro_sup_l
      0.00000000	     21.93469603	     -4.15790461	     -5.65558654	     -0.61479547	      0.62531987	     -0.64798639	     63.07838862	     -1.14856600	      4.00981895	     97.94520456	      1.70946631	     14.30967941	     -7.03697095	    -10.03429261	     62.89331898	     -9.59852333	      3.03193057	    102.75804697	      1.79346625	     21.39950577	     -2.29546561	    -10.03429261	    -37.74746676	      4.40800240	      6.32061584	     -0.61364193	    -18.62568828	      1.27031747	     65.32279874	     86.99589377	      0.00207050	     -9.98266958	      0.53056513	     60.80734781	     61.39371981
      0.01000000	     21.90918317	     -4.14912649	     -5.66469893	     -0.61460302	      0.62522776	     -0.64703657	     63.11556236	     -1.13694652	      4.01476023	     97.94469239	      1.70945737	     14.29575608	     -7.04637623	     -9.96875170	     62.91487449	     -9.59208123	      3.01649242	    102.74132697	      1.79317443	     21.39504827	     -2.28372169	     -9.96875170	    -37.77936074	      4.40188287	      6.31131616	     -0.60998756	    -18.60878647	      1.28238666	     65.34006284	     86.59297754	     -0.01770779	    -10.01599984	      0.49668571	     60.91683511	     61.36103329
      0.02000000	     21.88808746	     -4.13224549	     -5.65181999	     -0.61446306	      0.62510361	     -0.64672717	     63.15195673	     -1.15218928	      4.01863016	     97.95409399	      1.70962146	     14.25517652	     -7.03597148	     -9.91406078	     62.94416562	     -9.57425524	      3.00309956	    102.73267432	      1.79302342	     21.34701824	     -2.27112493	     -9.91406078	    -37.80661907	      4.38870593	      6.28688252	     -0.62659572	    -18.58495668	      1.29441687	     65.36429507	     86.21663495	     -0.04853174	    -10.05051730	      0.47010708	     61.04310908	     61.32986177
      0.03000000	     21.84818427	     -4.20915848	     -5.68079080	     -0.61433321	      0.62512749	     -0.64677797	     63.16727139	     -1.08523049	      3.94518485	     97.92979678	      1.70919739	     14.35976948	     -6.87668811	     -9.84059529	     62.98893055	     -9.67830299	      3.06708018	    102.76454410	      1.79357965	     21.53419873	     -1.94648613	     -9.84059529	    -37.79126483	      4.44268231	      6.38816272	     -0.66567143	    -18.65877374	      1.47556977	     65.25716431	     86.11679844	     -0.05900136	    -10.07412204	      0.55944722	     61.06473806	     61.34991371
      0.04000000	     21.82372344	     -4.14706500	     -5.63290329	     -0.61430814	      0.62540085	     -0.64683516	     63.19634142	     -1.16923943	      3.97393162	     97.94508759	      1.70946426	     14.38537381	     -6.87467429	     -9.69019535	     62.99724906	     -9.58160066	      3.04354866	    102.73575588	      1.79307720	     21.43320063	     -2.16286920	     -9.69019535	    -37.81034482	      4.41324392	      6.28569993	     -0.74776223	    -18.62059441	      1.49627724	     65.31573892	     85.40488132	     -0.11249388	    -10.13578841	      0.55003125	     61.20489309	     61.30993481
      0.05000000	     21.80386689	     -4.14440441	     -5.67024640	     -0.61433957	      0.62574183	     -0.64675935	     63.19923676	     -1.13365442	      3.98552674	     97.92542077	      1.70912101	     14.41052329	     -6.88221496	     -9.60957890	     62.99048636	     -9.62597157	      3.03546961	    102.72505636	      1.79289046	     21.52959616	     -2.07733104	     -9.60957890	    -37.78900649	      4.38870187	      6.28375716	     -0.82164971	    -18.60806676	      1.57267379	     65.30427265	     85.04797668	     -0.18769211	    -10.17263131	      0.56391431	     61.28537343	     61.29024210
      0.06000000	     21.78954817	     -4.22681345	     -5.65251498	     -0.61435037	      0.62562144	     -0.64699680	     63.17506468	     -1.11340061	      3.89482155	     97.89027835	      1.70850766	     14.43137042	     -6.79483719	     -9.54340058	     63.01488796	     -9.68413639	      3.12417409	    102.72960436	      1.79296984	     21.62795581	     -1.88916474	     -9.54340058	    -37.78272997	      4.48263014	      6.33702718	     -0.84263349	    -18.68457966	      1.72976823	     65.17138032	     85.25816666	     -0.14340189	    -10.18150485	      0.67908277	     61.21230206	     61.34092129
      0.07000000	     21.77339757	     -4.17872333	     -5.60332803	     -0.61438010	      0.62499472	     -0.64700468	     63.20951914	     -1.18423081	      3.92800309	     97.91282297	      1.70890114	     14.44139785	     -6.73528393	     -9.43372794	     63.04491190	     -9.60455316	      3.11134578	    102.71364548	      1.79269130	     21.50252694	     -2.08311295	     -9.43372794	    -37.79772348	      4.46792715	      6.26229382	     -0.86695070	    -18.67653556	      1.72299183	     65.20980744	     84.73607102	     -0.11586957	    -10.24600681	      0.66165752	     61.31922446	     61.31773226
      0.08000000	     21.75435536	     -4.11125869	     -5.55266778	     -0.61443909	      0.62469788	     -0.64649912	     63.25308660	     -1.27069190	      3.96607840	     97.94911614	      1.70953458	     14.46059094	     -6.71642831	     -9.28483640	     63.07711949	     -9.51124891	      3.08254241	    102.69877452	      1.79243175	     21.39267642	     -2.31474234	     -9.28483640	    -37.81223079	      4.41484809	      6.14880942	     -0.92917473	    -18.62281646	      1.72727534	     65.28091057	     83.90022457	     -0.13598482	    -10.33009368	      0.64000990	     61.50801296	     61.27195277
      0.09000000	     21.72535264	     -4.08271285	     -5.56087116	     -0.61412135	      0.62502041	     -0.64585132	     63.27820434	     -1.25913367	      3.98949101	     97.96609989	      1.70983100	     14.43151405	     -6.83236863	     -9.29836964	     63.09847438	     -9.54407237	      3.03849167	    102.69282640	      1.79232794	     21.49322316	     -2.28423568	     -9.29836964	    -37.83540096	      4.37548424	      6.10682171	     -0.97162416	    -18.54815867	      1.70983130	     65.31508981	     83.79582214	     -0.21102813	    -10.38071518	      0.60171831	     61.62675284	     61.25115119
      0.10000000	     21.67608229	     -4.07100433	     -5.56141605	     -0.61329305	      0.62554330	     -0.64591363	     63.30813085	     -1.24819746	      4.00514164	     97.98007510	      1.71007491	     14.44305787	     -6.78378146	     -9.24651639	     63.12670465	     -9.53809381	      3.04013830	    102.68217687	      1.79214207	     21.45951770	     -2.26623350	     -9.24651639	    -37.86494434	      4.36374031	      6.10955950	     -0.95160405	    -18.56347310	      1.70273364	     65.32730614	     83.45914185	     -0.20971640	    -10.46161433	      0.57668595	     61.74103770	     61.23301109
      0.11000000	     21.63000723	     -4.06402843	     -5.56646658	     -0.61249057	      0.62600141	     -0.64628126	     63.32619858	     -1.24615820	      4.01183590	     97.99605458	      1.71035381	     14.48212084	     -6.77735281	     -9.19835916	     63.12785974	     -9.53788564	      3.03319786	    102.66824087	      1.79189884	     21.50202318	     -2.27818420	     -9.19835916	    -37.89221485	      4.35088941	      6.14161213	     -0.89910105	    -18.57674523	      1.70581845	     65.33501757	     83.14536097	     -0.23073629	    -10.50298684	      0.57306168	     61.82273296	     61.21833467
      0.12000000	     21.59594377	     -4.04645526	     -5.58327470	     -0.61242397	      0.62625694	     -0.64616347	     63.32737812	     -1.23798437	      4.03001460	     97.98976324	      1.71024400	     14.47681369	     -6.82229085	     -9.17070657	     63.11231184	     -9.55398897	      3.00923516	    102.65321602	      1.79163661	     21.60663041	     -2.21093660	     -9.17070657	    -37.90617758	      4.32658976	      6.15723238	     -0.87451513	    -18.57615475	      1.72630344	     65.32215887	     82.86087249	     -0.26688671	    -10.55779809	      0.56903096	     61.91552499	     61.20115057
      0.13000000	     21.52269626	     -4.10359631	     -5.61035034	     -0.61286190	      0.62610611	     -0.64551179	     63.36269714	     -1.15596891	      3.97644241	     97.97383153	      1.70996594	     14.49190452	     -6.73480273	     -8.79363728	     63.17609509	     -9.66382990	      3.06452590	    102.66663354	      1.79187079	     21.85686335	     -1.79117315	     -8.79363728	    -37.83288201	      4.38036701	      6.31875589	     -0.79273455	    -18.58654787	      1.56301118	     64.88419641	     88.29224474	     -0.07422168	    -10.64313866	      0.97921001	     61.48533229	     62.26227883
      0.14000000	     21.49135166	     -4.03820007	     -5.54774518	     -0.61332658	      0.62562289	     -0.64507914	     63.40703855	     -1.23537500	      3.99413554	     98.01150672	      1.71062350	     14.53833037	     -6.77034772	     -8.69256001	     63.21000968	     -9.57781647	      3.04330966	    102.62660595	      1.79117217	     21.70374621	     -2.04929984	     -8.69256001	    -37.86480791	      4.33954182	      6.24269878	     -0.82654062	    -18.53837715	      1.57394648	     64.98238952	     87.22433585	     -0.12248223	    -10.71699488	      0.93690294	     61.65886196	     62.17130970
      0.15000000	     21.46681083	     -4.03013357	     -5.56036358	     -0.61351767	      0.62540582	     -0.64491143	     63.44599246	     -1.21315914	      3.98555455	     98.02817854	      1.71091448	     14.54588473	     -6.79836445	     -8.65716147	     63.23678541	     -9.60492260	      3.04607870	    102.61843113	      1.79102950	     21.73125458	     -2.00769191	     -8.65716147	    -37.89535375	      4.32492972	      6.26442629	     -0.83234355	    -18.53958119	      1.61404954	     65.01428167	     86.83512430	     -0.18620717	    -10.76570294	      0.92704650	     61.74780180	     62.13619774
      0.16000000	     21.42805330	     -4.02138408	     -5.53968068	     -0.61350821	      0.62572019	     -0.64501368	     63.48294431	     -1.22441285	      3.96992431	     98.03210909	      1.71098308	     14.58088262	     -6.74278133	     -8.62081771	     63.26808648	     -9.57641175	      3.06555173	    102.59626745	      1.79064267	     21.70606530	     -2.03892643	     -8.62081771	    -37.92862944	      4.32074616	      6.28556822	     -0.82118020	    -18.55475689	      1.65192228	     65.03247903	     86.53458895	     -0.18920275	    -10.79543518	      0.94334117	     61.78611151	     62.12547231
